<mxfile host="app.diagrams.net" modified="2022-03-09T20:35:51.841Z" agent="5.0 (Windows NT 10.0; Win64; x64) AppleWebKit/537.36 (KHTML, like Gecko) Chrome/99.0.4844.51 Safari/537.36 Edg/99.0.1150.30" etag="hlTedT-xIjZNFKxyOb5w" version="17.0.0" type="github">
  <diagram id="9BiGZynKtHY8mz7Qpg7e" name="Page-1">
    <mxGraphModel dx="346" dy="182" grid="1" gridSize="10" guides="1" tooltips="1" connect="1" arrows="1" fold="1" page="1" pageScale="1" pageWidth="1169" pageHeight="827" math="0" shadow="0">
      <root>
        <mxCell id="0" />
        <mxCell id="1" parent="0" />
        <mxCell id="MEw_wxHEMmBjlcB9mvUv-1" value="Ordine" style="rounded=0;whiteSpace=wrap;html=1;strokeWidth=1;perimeterSpacing=0;" parent="1" vertex="1">
          <mxGeometry x="280" y="160" width="120" height="40" as="geometry" />
        </mxCell>
        <mxCell id="MEw_wxHEMmBjlcB9mvUv-2" value="" style="endArrow=none;html=1;rounded=0;fillColor=#000000;entryX=0.166;entryY=0;entryDx=0;entryDy=0;entryPerimeter=0;exitX=0.5;exitY=1;exitDx=0;exitDy=0;" parent="1" source="MEw_wxHEMmBjlcB9mvUv-3" edge="1">
          <mxGeometry width="50" height="50" relative="1" as="geometry">
            <mxPoint x="388" y="140" as="sourcePoint" />
            <mxPoint x="387.9200000000001" y="160" as="targetPoint" />
          </mxGeometry>
        </mxCell>
        <mxCell id="MEw_wxHEMmBjlcB9mvUv-3" value="" style="ellipse;whiteSpace=wrap;html=1;aspect=fixed;strokeWidth=1;fillColor=none;" parent="1" vertex="1">
          <mxGeometry x="383" y="120" width="10" height="10" as="geometry" />
        </mxCell>
        <mxCell id="MEw_wxHEMmBjlcB9mvUv-18" value="Stato" style="text;html=1;align=center;verticalAlign=middle;resizable=0;points=[];autosize=1;strokeColor=none;fillColor=none;" parent="1" vertex="1">
          <mxGeometry x="368" y="100" width="40" height="20" as="geometry" />
        </mxCell>
        <mxCell id="_n9Jq-rr2bxkJ9Zpd_iA-1" value="Pacco" style="rounded=0;whiteSpace=wrap;html=1;strokeWidth=1;perimeterSpacing=0;" parent="1" vertex="1">
          <mxGeometry x="680" y="160" width="120" height="40" as="geometry" />
        </mxCell>
        <mxCell id="_n9Jq-rr2bxkJ9Zpd_iA-2" value="" style="endArrow=none;html=1;rounded=0;fillColor=#000000;entryX=0.166;entryY=0;entryDx=0;entryDy=0;entryPerimeter=0;exitX=0.5;exitY=1;exitDx=0;exitDy=0;" parent="1" source="_n9Jq-rr2bxkJ9Zpd_iA-3" edge="1">
          <mxGeometry width="50" height="50" relative="1" as="geometry">
            <mxPoint x="289" y="140" as="sourcePoint" />
            <mxPoint x="288.91999999999996" y="160" as="targetPoint" />
          </mxGeometry>
        </mxCell>
        <mxCell id="_n9Jq-rr2bxkJ9Zpd_iA-3" value="" style="ellipse;whiteSpace=wrap;html=1;aspect=fixed;strokeWidth=1;fillColor=#000000;" parent="1" vertex="1">
          <mxGeometry x="284" y="120" width="10" height="10" as="geometry" />
        </mxCell>
        <mxCell id="_n9Jq-rr2bxkJ9Zpd_iA-4" value="Codice" style="text;html=1;align=center;verticalAlign=middle;resizable=0;points=[];autosize=1;strokeColor=none;fillColor=none;" parent="1" vertex="1">
          <mxGeometry x="264" y="100" width="50" height="20" as="geometry" />
        </mxCell>
        <mxCell id="_n9Jq-rr2bxkJ9Zpd_iA-5" value="" style="endArrow=none;html=1;rounded=0;fillColor=#000000;entryX=0.166;entryY=0;entryDx=0;entryDy=0;entryPerimeter=0;exitX=0.5;exitY=1;exitDx=0;exitDy=0;" parent="1" source="_n9Jq-rr2bxkJ9Zpd_iA-6" edge="1">
          <mxGeometry width="50" height="50" relative="1" as="geometry">
            <mxPoint x="338" y="140" as="sourcePoint" />
            <mxPoint x="337.91999999999996" y="160" as="targetPoint" />
          </mxGeometry>
        </mxCell>
        <mxCell id="_n9Jq-rr2bxkJ9Zpd_iA-6" value="" style="ellipse;whiteSpace=wrap;html=1;aspect=fixed;strokeWidth=1;fillColor=none;" parent="1" vertex="1">
          <mxGeometry x="333" y="120" width="10" height="10" as="geometry" />
        </mxCell>
        <mxCell id="_n9Jq-rr2bxkJ9Zpd_iA-7" value="Contatto" style="text;html=1;align=center;verticalAlign=middle;resizable=0;points=[];autosize=1;strokeColor=none;fillColor=none;" parent="1" vertex="1">
          <mxGeometry x="308" y="100" width="60" height="20" as="geometry" />
        </mxCell>
        <mxCell id="_n9Jq-rr2bxkJ9Zpd_iA-8" value="" style="endArrow=none;html=1;rounded=0;fillColor=#000000;entryX=0.166;entryY=0;entryDx=0;entryDy=0;entryPerimeter=0;exitX=0.5;exitY=1;exitDx=0;exitDy=0;" parent="1" source="_n9Jq-rr2bxkJ9Zpd_iA-9" edge="1">
          <mxGeometry width="50" height="50" relative="1" as="geometry">
            <mxPoint x="698" y="140" as="sourcePoint" />
            <mxPoint x="697.92" y="160" as="targetPoint" />
          </mxGeometry>
        </mxCell>
        <mxCell id="_n9Jq-rr2bxkJ9Zpd_iA-9" value="" style="ellipse;whiteSpace=wrap;html=1;aspect=fixed;strokeWidth=1;fillColor=#000000;" parent="1" vertex="1">
          <mxGeometry x="693" y="120" width="10" height="10" as="geometry" />
        </mxCell>
        <mxCell id="_n9Jq-rr2bxkJ9Zpd_iA-10" value="Codice" style="text;html=1;align=center;verticalAlign=middle;resizable=0;points=[];autosize=1;strokeColor=none;fillColor=none;" parent="1" vertex="1">
          <mxGeometry x="673" y="100" width="50" height="20" as="geometry" />
        </mxCell>
        <mxCell id="_n9Jq-rr2bxkJ9Zpd_iA-11" value="aggregazione" style="rhombus;whiteSpace=wrap;html=1;" parent="1" vertex="1">
          <mxGeometry x="480" y="160" width="120" height="40" as="geometry" />
        </mxCell>
        <mxCell id="_n9Jq-rr2bxkJ9Zpd_iA-12" value="" style="endArrow=none;html=1;rounded=0;entryX=0;entryY=0.5;entryDx=0;entryDy=0;exitX=1;exitY=0.5;exitDx=0;exitDy=0;" parent="1" source="_n9Jq-rr2bxkJ9Zpd_iA-11" target="_n9Jq-rr2bxkJ9Zpd_iA-1" edge="1">
          <mxGeometry width="50" height="50" relative="1" as="geometry">
            <mxPoint x="579" y="250" as="sourcePoint" />
            <mxPoint x="629" y="200" as="targetPoint" />
          </mxGeometry>
        </mxCell>
        <mxCell id="_n9Jq-rr2bxkJ9Zpd_iA-13" value="" style="endArrow=none;html=1;rounded=0;entryX=1;entryY=0.5;entryDx=0;entryDy=0;exitX=0;exitY=0.5;exitDx=0;exitDy=0;" parent="1" source="_n9Jq-rr2bxkJ9Zpd_iA-11" target="MEw_wxHEMmBjlcB9mvUv-1" edge="1">
          <mxGeometry width="50" height="50" relative="1" as="geometry">
            <mxPoint x="579" y="250" as="sourcePoint" />
            <mxPoint x="629" y="200" as="targetPoint" />
          </mxGeometry>
        </mxCell>
        <mxCell id="_n9Jq-rr2bxkJ9Zpd_iA-18" value="" style="endArrow=none;html=1;rounded=0;fillColor=#000000;entryX=0.166;entryY=0;entryDx=0;entryDy=0;entryPerimeter=0;exitX=0.5;exitY=1;exitDx=0;exitDy=0;" parent="1" source="_n9Jq-rr2bxkJ9Zpd_iA-19" edge="1">
          <mxGeometry width="50" height="50" relative="1" as="geometry">
            <mxPoint x="783" y="140" as="sourcePoint" />
            <mxPoint x="782.9200000000001" y="160" as="targetPoint" />
          </mxGeometry>
        </mxCell>
        <mxCell id="_n9Jq-rr2bxkJ9Zpd_iA-19" value="" style="ellipse;whiteSpace=wrap;html=1;aspect=fixed;strokeWidth=1;fillColor=none;" parent="1" vertex="1">
          <mxGeometry x="778" y="120" width="10" height="10" as="geometry" />
        </mxCell>
        <mxCell id="_n9Jq-rr2bxkJ9Zpd_iA-20" value="&lt;span style=&quot;color: rgb(0 , 0 , 0) ; font-family: &amp;#34;helvetica&amp;#34; ; font-size: 12px ; font-style: normal ; font-weight: 400 ; letter-spacing: normal ; text-align: center ; text-indent: 0px ; text-transform: none ; word-spacing: 0px ; background-color: rgb(248 , 249 , 250) ; display: inline ; float: none&quot;&gt;Num. Piante&lt;/span&gt;" style="text;whiteSpace=wrap;html=1;" parent="1" vertex="1">
          <mxGeometry x="748" y="95" width="80" height="30" as="geometry" />
        </mxCell>
        <mxCell id="_n9Jq-rr2bxkJ9Zpd_iA-21" value="(1,N)" style="text;html=1;align=center;verticalAlign=middle;resizable=0;points=[];autosize=1;strokeColor=none;fillColor=none;" parent="1" vertex="1">
          <mxGeometry x="398" y="160" width="40" height="20" as="geometry" />
        </mxCell>
        <mxCell id="_n9Jq-rr2bxkJ9Zpd_iA-22" value="(1,1)" style="text;html=1;align=center;verticalAlign=middle;resizable=0;points=[];autosize=1;strokeColor=none;fillColor=none;" parent="1" vertex="1">
          <mxGeometry x="638" y="160" width="40" height="20" as="geometry" />
        </mxCell>
        <mxCell id="_n9Jq-rr2bxkJ9Zpd_iA-24" value="Indirizzo" style="ellipse;whiteSpace=wrap;html=1;" parent="1" vertex="1">
          <mxGeometry x="158" y="160" width="80" height="41" as="geometry" />
        </mxCell>
        <mxCell id="_n9Jq-rr2bxkJ9Zpd_iA-25" value="" style="ellipse;whiteSpace=wrap;html=1;aspect=fixed;strokeWidth=1;fillColor=none;" parent="1" vertex="1">
          <mxGeometry x="128" y="146" width="10" height="10" as="geometry" />
        </mxCell>
        <mxCell id="_n9Jq-rr2bxkJ9Zpd_iA-26" value="" style="ellipse;whiteSpace=wrap;html=1;aspect=fixed;strokeWidth=1;fillColor=none;" parent="1" vertex="1">
          <mxGeometry x="128" y="166" width="10" height="10" as="geometry" />
        </mxCell>
        <mxCell id="_n9Jq-rr2bxkJ9Zpd_iA-27" value="" style="ellipse;whiteSpace=wrap;html=1;aspect=fixed;strokeWidth=1;fillColor=none;" parent="1" vertex="1">
          <mxGeometry x="128" y="206" width="10" height="10" as="geometry" />
        </mxCell>
        <mxCell id="_n9Jq-rr2bxkJ9Zpd_iA-28" value="" style="endArrow=none;html=1;rounded=0;entryX=1;entryY=0.5;entryDx=0;entryDy=0;" parent="1" target="_n9Jq-rr2bxkJ9Zpd_iA-25" edge="1">
          <mxGeometry width="50" height="50" relative="1" as="geometry">
            <mxPoint x="158" y="181" as="sourcePoint" />
            <mxPoint x="177.999999999998" y="156" as="targetPoint" />
          </mxGeometry>
        </mxCell>
        <mxCell id="_n9Jq-rr2bxkJ9Zpd_iA-29" value="" style="endArrow=none;html=1;rounded=0;entryX=1;entryY=0.5;entryDx=0;entryDy=0;" parent="1" target="_n9Jq-rr2bxkJ9Zpd_iA-26" edge="1">
          <mxGeometry width="50" height="50" relative="1" as="geometry">
            <mxPoint x="158" y="181" as="sourcePoint" />
            <mxPoint x="177.999999999998" y="166" as="targetPoint" />
          </mxGeometry>
        </mxCell>
        <mxCell id="_n9Jq-rr2bxkJ9Zpd_iA-30" value="" style="endArrow=none;html=1;rounded=0;entryX=1;entryY=0.5;entryDx=0;entryDy=0;" parent="1" target="_n9Jq-rr2bxkJ9Zpd_iA-27" edge="1">
          <mxGeometry width="50" height="50" relative="1" as="geometry">
            <mxPoint x="158" y="181" as="sourcePoint" />
            <mxPoint x="147.99999999999977" y="206" as="targetPoint" />
          </mxGeometry>
        </mxCell>
        <mxCell id="_n9Jq-rr2bxkJ9Zpd_iA-31" value="Via" style="text;html=1;align=center;verticalAlign=middle;resizable=0;points=[];autosize=1;strokeColor=none;fillColor=none;" parent="1" vertex="1">
          <mxGeometry x="98" y="140" width="30" height="20" as="geometry" />
        </mxCell>
        <mxCell id="_n9Jq-rr2bxkJ9Zpd_iA-32" value="Numero civico" style="text;html=1;align=center;verticalAlign=middle;resizable=0;points=[];autosize=1;strokeColor=none;fillColor=none;" parent="1" vertex="1">
          <mxGeometry x="38" y="160" width="90" height="20" as="geometry" />
        </mxCell>
        <mxCell id="_n9Jq-rr2bxkJ9Zpd_iA-33" value="Città" style="text;html=1;align=center;verticalAlign=middle;resizable=0;points=[];autosize=1;strokeColor=none;fillColor=none;" parent="1" vertex="1">
          <mxGeometry x="88" y="180" width="40" height="20" as="geometry" />
        </mxCell>
        <mxCell id="_n9Jq-rr2bxkJ9Zpd_iA-34" value="" style="ellipse;whiteSpace=wrap;html=1;aspect=fixed;strokeWidth=1;fillColor=none;" parent="1" vertex="1">
          <mxGeometry x="128" y="186" width="10" height="10" as="geometry" />
        </mxCell>
        <mxCell id="_n9Jq-rr2bxkJ9Zpd_iA-35" value="" style="endArrow=none;html=1;rounded=0;entryX=1;entryY=0.5;entryDx=0;entryDy=0;" parent="1" target="_n9Jq-rr2bxkJ9Zpd_iA-34" edge="1">
          <mxGeometry width="50" height="50" relative="1" as="geometry">
            <mxPoint x="158" y="181" as="sourcePoint" />
            <mxPoint x="177.999999999998" y="186" as="targetPoint" />
          </mxGeometry>
        </mxCell>
        <mxCell id="_n9Jq-rr2bxkJ9Zpd_iA-36" value="Nazione" style="text;html=1;align=center;verticalAlign=middle;resizable=0;points=[];autosize=1;strokeColor=none;fillColor=none;" parent="1" vertex="1">
          <mxGeometry x="68" y="200" width="60" height="20" as="geometry" />
        </mxCell>
        <mxCell id="_n9Jq-rr2bxkJ9Zpd_iA-38" value="" style="endArrow=none;html=1;rounded=0;entryX=1;entryY=0.5;entryDx=0;entryDy=0;exitX=0;exitY=0.5;exitDx=0;exitDy=0;" parent="1" source="MEw_wxHEMmBjlcB9mvUv-1" target="_n9Jq-rr2bxkJ9Zpd_iA-24" edge="1">
          <mxGeometry width="50" height="50" relative="1" as="geometry">
            <mxPoint x="348" y="140" as="sourcePoint" />
            <mxPoint x="398" y="90" as="targetPoint" />
          </mxGeometry>
        </mxCell>
        <mxCell id="P6uGG6WrRbah_G_bv0m2-1" value="Giacenza" style="rounded=0;whiteSpace=wrap;html=1;strokeWidth=1;perimeterSpacing=0;" parent="1" vertex="1">
          <mxGeometry x="280" y="400" width="120" height="40" as="geometry" />
        </mxCell>
        <mxCell id="P6uGG6WrRbah_G_bv0m2-3" value="" style="ellipse;whiteSpace=wrap;html=1;aspect=fixed;strokeWidth=1;fillColor=#000000;" parent="1" vertex="1">
          <mxGeometry x="240" y="405" width="10" height="10" as="geometry" />
        </mxCell>
        <mxCell id="P6uGG6WrRbah_G_bv0m2-4" value="Codice" style="text;html=1;align=center;verticalAlign=middle;resizable=0;points=[];autosize=1;strokeColor=none;fillColor=none;" parent="1" vertex="1">
          <mxGeometry x="190" y="400" width="50" height="20" as="geometry" />
        </mxCell>
        <mxCell id="P6uGG6WrRbah_G_bv0m2-6" value="" style="ellipse;whiteSpace=wrap;html=1;aspect=fixed;strokeWidth=1;fillColor=none;" parent="1" vertex="1">
          <mxGeometry x="240" y="425" width="10" height="10" as="geometry" />
        </mxCell>
        <mxCell id="P6uGG6WrRbah_G_bv0m2-7" value="Quantità" style="text;html=1;align=center;verticalAlign=middle;resizable=0;points=[];autosize=1;strokeColor=none;fillColor=none;" parent="1" vertex="1">
          <mxGeometry x="181" y="418.99999999999994" width="60" height="20" as="geometry" />
        </mxCell>
        <mxCell id="P6uGG6WrRbah_G_bv0m2-8" value="inizializzazione" style="rhombus;whiteSpace=wrap;html=1;" parent="1" vertex="1">
          <mxGeometry x="280" y="280" width="120" height="40" as="geometry" />
        </mxCell>
        <mxCell id="P6uGG6WrRbah_G_bv0m2-10" value="" style="endArrow=none;html=1;rounded=0;entryX=0.5;entryY=0;entryDx=0;entryDy=0;exitX=0.5;exitY=1;exitDx=0;exitDy=0;" parent="1" source="P6uGG6WrRbah_G_bv0m2-8" target="P6uGG6WrRbah_G_bv0m2-1" edge="1">
          <mxGeometry width="50" height="50" relative="1" as="geometry">
            <mxPoint x="488" y="411" as="sourcePoint" />
            <mxPoint x="538" y="361" as="targetPoint" />
          </mxGeometry>
        </mxCell>
        <mxCell id="P6uGG6WrRbah_G_bv0m2-11" value="" style="endArrow=none;html=1;rounded=0;exitX=1;exitY=0.5;exitDx=0;exitDy=0;entryX=0;entryY=0.25;entryDx=0;entryDy=0;" parent="1" source="P6uGG6WrRbah_G_bv0m2-3" target="P6uGG6WrRbah_G_bv0m2-1" edge="1">
          <mxGeometry width="50" height="50" relative="1" as="geometry">
            <mxPoint x="279" y="480" as="sourcePoint" />
            <mxPoint x="300" y="450" as="targetPoint" />
          </mxGeometry>
        </mxCell>
        <mxCell id="P6uGG6WrRbah_G_bv0m2-12" value="" style="endArrow=none;html=1;rounded=0;exitX=1;exitY=0.5;exitDx=0;exitDy=0;entryX=0;entryY=0.75;entryDx=0;entryDy=0;" parent="1" source="P6uGG6WrRbah_G_bv0m2-6" target="P6uGG6WrRbah_G_bv0m2-1" edge="1">
          <mxGeometry width="50" height="50" relative="1" as="geometry">
            <mxPoint x="279" y="480" as="sourcePoint" />
            <mxPoint x="340" y="450" as="targetPoint" />
          </mxGeometry>
        </mxCell>
        <mxCell id="P6uGG6WrRbah_G_bv0m2-13" value="(1,N)" style="text;html=1;align=center;verticalAlign=middle;resizable=0;points=[];autosize=1;strokeColor=none;fillColor=none;" parent="1" vertex="1">
          <mxGeometry x="340" y="215" width="40" height="20" as="geometry" />
        </mxCell>
        <mxCell id="P6uGG6WrRbah_G_bv0m2-14" value="(0,N)" style="text;html=1;align=center;verticalAlign=middle;resizable=0;points=[];autosize=1;strokeColor=none;fillColor=none;" parent="1" vertex="1">
          <mxGeometry x="340" y="375" width="40" height="20" as="geometry" />
        </mxCell>
        <mxCell id="P6uGG6WrRbah_G_bv0m2-15" value="" style="endArrow=none;html=1;rounded=0;exitX=1;exitY=0.5;exitDx=0;exitDy=0;entryX=0;entryY=0.5;entryDx=0;entryDy=0;" parent="1" source="P6uGG6WrRbah_G_bv0m2-8" target="P6uGG6WrRbah_G_bv0m2-16" edge="1">
          <mxGeometry width="50" height="50" relative="1" as="geometry">
            <mxPoint x="538" y="390" as="sourcePoint" />
            <mxPoint x="538" y="371" as="targetPoint" />
          </mxGeometry>
        </mxCell>
        <mxCell id="P6uGG6WrRbah_G_bv0m2-16" value="" style="ellipse;whiteSpace=wrap;html=1;aspect=fixed;strokeWidth=1;fillColor=none;" parent="1" vertex="1">
          <mxGeometry x="430" y="295" width="10" height="10" as="geometry" />
        </mxCell>
        <mxCell id="P6uGG6WrRbah_G_bv0m2-17" value="Quantità" style="text;html=1;align=center;verticalAlign=middle;resizable=0;points=[];autosize=1;strokeColor=none;fillColor=none;" parent="1" vertex="1">
          <mxGeometry x="441" y="290" width="60" height="20" as="geometry" />
        </mxCell>
        <mxCell id="P6uGG6WrRbah_G_bv0m2-18" value="immissione" style="rhombus;whiteSpace=wrap;html=1;" parent="1" vertex="1">
          <mxGeometry x="680" y="280" width="120" height="40" as="geometry" />
        </mxCell>
        <mxCell id="P6uGG6WrRbah_G_bv0m2-19" value="" style="endArrow=none;html=1;rounded=0;fillColor=#000000;exitX=0;exitY=0.5;exitDx=0;exitDy=0;entryX=1;entryY=0.5;entryDx=0;entryDy=0;" parent="1" source="P6uGG6WrRbah_G_bv0m2-20" target="P6uGG6WrRbah_G_bv0m2-18" edge="1">
          <mxGeometry width="50" height="50" relative="1" as="geometry">
            <mxPoint x="739" y="255" as="sourcePoint" />
            <mxPoint x="739" y="265" as="targetPoint" />
          </mxGeometry>
        </mxCell>
        <mxCell id="P6uGG6WrRbah_G_bv0m2-20" value="" style="ellipse;whiteSpace=wrap;html=1;aspect=fixed;strokeWidth=1;fillColor=none;" parent="1" vertex="1">
          <mxGeometry x="830" y="295" width="10" height="10" as="geometry" />
        </mxCell>
        <mxCell id="P6uGG6WrRbah_G_bv0m2-21" value="Quantità" style="text;html=1;align=center;verticalAlign=middle;resizable=0;points=[];autosize=1;strokeColor=none;fillColor=none;" parent="1" vertex="1">
          <mxGeometry x="841" y="289" width="60" height="20" as="geometry" />
        </mxCell>
        <mxCell id="P6uGG6WrRbah_G_bv0m2-22" value="" style="endArrow=none;html=1;rounded=0;exitX=0.5;exitY=0;exitDx=0;exitDy=0;entryX=0.5;entryY=1;entryDx=0;entryDy=0;" parent="1" source="P6uGG6WrRbah_G_bv0m2-18" target="_n9Jq-rr2bxkJ9Zpd_iA-1" edge="1">
          <mxGeometry width="50" height="50" relative="1" as="geometry">
            <mxPoint x="788" y="280" as="sourcePoint" />
            <mxPoint x="838" y="230" as="targetPoint" />
          </mxGeometry>
        </mxCell>
        <mxCell id="P6uGG6WrRbah_G_bv0m2-24" value="(1,N)" style="text;html=1;align=center;verticalAlign=middle;resizable=0;points=[];autosize=1;strokeColor=none;fillColor=none;" parent="1" vertex="1">
          <mxGeometry x="738" y="206" width="40" height="20" as="geometry" />
        </mxCell>
        <mxCell id="P6uGG6WrRbah_G_bv0m2-25" value="(0,N)" style="text;html=1;align=center;verticalAlign=middle;resizable=0;points=[];autosize=1;strokeColor=none;fillColor=none;" parent="1" vertex="1">
          <mxGeometry x="740" y="324" width="40" height="20" as="geometry" />
        </mxCell>
        <mxCell id="_7TDcqivY-833FL7VtdI-1" value="" style="endArrow=none;html=1;rounded=0;exitX=0.5;exitY=0;exitDx=0;exitDy=0;entryX=0.5;entryY=1;entryDx=0;entryDy=0;" parent="1" source="P6uGG6WrRbah_G_bv0m2-8" target="MEw_wxHEMmBjlcB9mvUv-1" edge="1">
          <mxGeometry width="50" height="50" relative="1" as="geometry">
            <mxPoint x="460" y="240" as="sourcePoint" />
            <mxPoint x="510" y="190" as="targetPoint" />
          </mxGeometry>
        </mxCell>
        <mxCell id="_7TDcqivY-833FL7VtdI-3" value="Pianta" style="rounded=0;whiteSpace=wrap;html=1;strokeWidth=1;perimeterSpacing=0;" parent="1" vertex="1">
          <mxGeometry x="679.5" y="400" width="120" height="40" as="geometry" />
        </mxCell>
        <mxCell id="_7TDcqivY-833FL7VtdI-4" value="" style="endArrow=none;html=1;rounded=0;fillColor=#000000;exitX=0.5;exitY=1;exitDx=0;exitDy=0;entryX=0.168;entryY=0.002;entryDx=0;entryDy=0;entryPerimeter=0;" parent="1" source="_7TDcqivY-833FL7VtdI-5" target="_7TDcqivY-833FL7VtdI-3" edge="1">
          <mxGeometry width="50" height="50" relative="1" as="geometry">
            <mxPoint x="699.5" y="380" as="sourcePoint" />
            <mxPoint x="700" y="400" as="targetPoint" />
          </mxGeometry>
        </mxCell>
        <mxCell id="_7TDcqivY-833FL7VtdI-5" value="" style="ellipse;whiteSpace=wrap;html=1;aspect=fixed;strokeWidth=1;fillColor=#000000;" parent="1" vertex="1">
          <mxGeometry x="694.5" y="360" width="10" height="10" as="geometry" />
        </mxCell>
        <mxCell id="_7TDcqivY-833FL7VtdI-6" value="Codice" style="text;html=1;align=center;verticalAlign=middle;resizable=0;points=[];autosize=1;strokeColor=none;fillColor=none;" parent="1" vertex="1">
          <mxGeometry x="674.5" y="340" width="50" height="20" as="geometry" />
        </mxCell>
        <mxCell id="_7TDcqivY-833FL7VtdI-7" value="" style="endArrow=none;html=1;rounded=0;fillColor=#000000;entryX=1;entryY=0.25;entryDx=0;entryDy=0;exitX=0;exitY=0.5;exitDx=0;exitDy=0;" parent="1" source="_7TDcqivY-833FL7VtdI-8" target="_7TDcqivY-833FL7VtdI-3" edge="1">
          <mxGeometry width="50" height="50" relative="1" as="geometry">
            <mxPoint x="739.5" y="380" as="sourcePoint" />
            <mxPoint x="739.4200000000001" y="400" as="targetPoint" />
          </mxGeometry>
        </mxCell>
        <mxCell id="_7TDcqivY-833FL7VtdI-8" value="" style="ellipse;whiteSpace=wrap;html=1;aspect=fixed;strokeWidth=1;fillColor=none;" parent="1" vertex="1">
          <mxGeometry x="830" y="405" width="10" height="10" as="geometry" />
        </mxCell>
        <mxCell id="_7TDcqivY-833FL7VtdI-9" value="Nome latino" style="text;html=1;align=center;verticalAlign=middle;resizable=0;points=[];autosize=1;strokeColor=none;fillColor=none;" parent="1" vertex="1">
          <mxGeometry x="840" y="399" width="80" height="20" as="geometry" />
        </mxCell>
        <mxCell id="_7TDcqivY-833FL7VtdI-10" value="" style="endArrow=none;html=1;rounded=0;fillColor=#000000;entryX=1;entryY=0.75;entryDx=0;entryDy=0;exitX=0;exitY=0.5;exitDx=0;exitDy=0;" parent="1" source="_7TDcqivY-833FL7VtdI-11" target="_7TDcqivY-833FL7VtdI-3" edge="1">
          <mxGeometry width="50" height="50" relative="1" as="geometry">
            <mxPoint x="789.5" y="380" as="sourcePoint" />
            <mxPoint x="789.4200000000001" y="400" as="targetPoint" />
          </mxGeometry>
        </mxCell>
        <mxCell id="_7TDcqivY-833FL7VtdI-11" value="" style="ellipse;whiteSpace=wrap;html=1;aspect=fixed;strokeWidth=1;fillColor=none;" parent="1" vertex="1">
          <mxGeometry x="830" y="425" width="10" height="10" as="geometry" />
        </mxCell>
        <mxCell id="_7TDcqivY-833FL7VtdI-12" value="Nome comune" style="text;html=1;align=center;verticalAlign=middle;resizable=0;points=[];autosize=1;strokeColor=none;fillColor=none;" parent="1" vertex="1">
          <mxGeometry x="842" y="420" width="90" height="20" as="geometry" />
        </mxCell>
        <mxCell id="_7TDcqivY-833FL7VtdI-15" value="" style="endArrow=none;html=1;rounded=0;entryX=0.5;entryY=1;entryDx=0;entryDy=0;exitX=0.5;exitY=0;exitDx=0;exitDy=0;" parent="1" source="_7TDcqivY-833FL7VtdI-3" target="P6uGG6WrRbah_G_bv0m2-18" edge="1">
          <mxGeometry width="50" height="50" relative="1" as="geometry">
            <mxPoint x="740" y="390" as="sourcePoint" />
            <mxPoint x="790" y="360" as="targetPoint" />
          </mxGeometry>
        </mxCell>
        <mxCell id="_7TDcqivY-833FL7VtdI-16" value="stoccaggio" style="rhombus;whiteSpace=wrap;html=1;" parent="1" vertex="1">
          <mxGeometry x="480" y="400" width="120" height="40" as="geometry" />
        </mxCell>
        <mxCell id="_7TDcqivY-833FL7VtdI-17" value="" style="endArrow=none;html=1;rounded=0;entryX=0;entryY=0.5;entryDx=0;entryDy=0;exitX=1;exitY=0.5;exitDx=0;exitDy=0;" parent="1" source="_7TDcqivY-833FL7VtdI-16" target="_7TDcqivY-833FL7VtdI-3" edge="1">
          <mxGeometry width="50" height="50" relative="1" as="geometry">
            <mxPoint x="600" y="450" as="sourcePoint" />
            <mxPoint x="650" y="400" as="targetPoint" />
          </mxGeometry>
        </mxCell>
        <mxCell id="_7TDcqivY-833FL7VtdI-18" value="" style="endArrow=none;html=1;rounded=0;exitX=1;exitY=0.5;exitDx=0;exitDy=0;entryX=0;entryY=0.5;entryDx=0;entryDy=0;" parent="1" source="P6uGG6WrRbah_G_bv0m2-1" target="_7TDcqivY-833FL7VtdI-16" edge="1">
          <mxGeometry width="50" height="50" relative="1" as="geometry">
            <mxPoint x="460" y="450" as="sourcePoint" />
            <mxPoint x="510" y="400" as="targetPoint" />
          </mxGeometry>
        </mxCell>
        <mxCell id="_7TDcqivY-833FL7VtdI-19" value="(1,1)" style="text;html=1;align=center;verticalAlign=middle;resizable=0;points=[];autosize=1;strokeColor=none;fillColor=none;" parent="1" vertex="1">
          <mxGeometry x="400" y="400" width="40" height="20" as="geometry" />
        </mxCell>
        <mxCell id="_7TDcqivY-833FL7VtdI-21" value="(0,1)" style="text;html=1;align=center;verticalAlign=middle;resizable=0;points=[];autosize=1;strokeColor=none;fillColor=none;" parent="1" vertex="1">
          <mxGeometry x="637" y="400" width="40" height="20" as="geometry" />
        </mxCell>
        <mxCell id="xjIFtlh1PoH-UqJgCrfh-1" value="Prezzo" style="rounded=0;whiteSpace=wrap;html=1;strokeWidth=1;perimeterSpacing=0;" vertex="1" parent="1">
          <mxGeometry x="480" y="560" width="120" height="40" as="geometry" />
        </mxCell>
        <mxCell id="xjIFtlh1PoH-UqJgCrfh-2" value="valutazione" style="rhombus;whiteSpace=wrap;html=1;" vertex="1" parent="1">
          <mxGeometry x="680" y="560" width="120" height="40" as="geometry" />
        </mxCell>
        <mxCell id="xjIFtlh1PoH-UqJgCrfh-4" value="" style="endArrow=none;html=1;rounded=0;entryX=1;entryY=0.5;entryDx=0;entryDy=0;exitX=0;exitY=0.5;exitDx=0;exitDy=0;" edge="1" parent="1" source="xjIFtlh1PoH-UqJgCrfh-2" target="xjIFtlh1PoH-UqJgCrfh-1">
          <mxGeometry width="50" height="50" relative="1" as="geometry">
            <mxPoint x="770" y="680" as="sourcePoint" />
            <mxPoint x="820" y="630" as="targetPoint" />
          </mxGeometry>
        </mxCell>
        <mxCell id="xjIFtlh1PoH-UqJgCrfh-5" value="" style="endArrow=none;html=1;rounded=0;fillColor=#000000;entryX=0.166;entryY=0;entryDx=0;entryDy=0;entryPerimeter=0;exitX=0.5;exitY=1;exitDx=0;exitDy=0;" edge="1" parent="1" source="xjIFtlh1PoH-UqJgCrfh-6">
          <mxGeometry width="50" height="50" relative="1" as="geometry">
            <mxPoint x="499.5" y="540" as="sourcePoint" />
            <mxPoint x="499.41999999999985" y="560" as="targetPoint" />
          </mxGeometry>
        </mxCell>
        <mxCell id="xjIFtlh1PoH-UqJgCrfh-6" value="" style="ellipse;whiteSpace=wrap;html=1;aspect=fixed;strokeWidth=1;fillColor=none;" vertex="1" parent="1">
          <mxGeometry x="494.5" y="520" width="10" height="10" as="geometry" />
        </mxCell>
        <mxCell id="xjIFtlh1PoH-UqJgCrfh-7" value="" style="endArrow=none;html=1;rounded=0;fillColor=#000000;entryX=0.166;entryY=0;entryDx=0;entryDy=0;entryPerimeter=0;exitX=0.5;exitY=1;exitDx=0;exitDy=0;" edge="1" parent="1" source="xjIFtlh1PoH-UqJgCrfh-8">
          <mxGeometry width="50" height="50" relative="1" as="geometry">
            <mxPoint x="579.5" y="540" as="sourcePoint" />
            <mxPoint x="579.4199999999998" y="560" as="targetPoint" />
          </mxGeometry>
        </mxCell>
        <mxCell id="xjIFtlh1PoH-UqJgCrfh-8" value="" style="ellipse;whiteSpace=wrap;html=1;aspect=fixed;strokeWidth=1;fillColor=none;" vertex="1" parent="1">
          <mxGeometry x="574.5" y="520" width="10" height="10" as="geometry" />
        </mxCell>
        <mxCell id="xjIFtlh1PoH-UqJgCrfh-9" value="Data inizio" style="text;html=1;align=center;verticalAlign=middle;resizable=0;points=[];autosize=1;strokeColor=none;fillColor=none;" vertex="1" parent="1">
          <mxGeometry x="544.5" y="495" width="70" height="20" as="geometry" />
        </mxCell>
        <mxCell id="xjIFtlh1PoH-UqJgCrfh-10" value="Valore" style="text;html=1;align=center;verticalAlign=middle;resizable=0;points=[];autosize=1;strokeColor=none;fillColor=none;" vertex="1" parent="1">
          <mxGeometry x="474.5" y="495" width="50" height="20" as="geometry" />
        </mxCell>
        <mxCell id="xjIFtlh1PoH-UqJgCrfh-11" value="" style="endArrow=none;html=1;rounded=0;" edge="1" parent="1">
          <mxGeometry width="50" height="50" relative="1" as="geometry">
            <mxPoint x="570" y="540" as="sourcePoint" />
            <mxPoint x="620" y="590" as="targetPoint" />
            <Array as="points">
              <mxPoint x="620" y="540" />
            </Array>
          </mxGeometry>
        </mxCell>
        <mxCell id="xjIFtlh1PoH-UqJgCrfh-12" value="" style="ellipse;whiteSpace=wrap;html=1;aspect=fixed;strokeWidth=1;fillColor=#000000;" vertex="1" parent="1">
          <mxGeometry x="614.5" y="590" width="10" height="10" as="geometry" />
        </mxCell>
        <mxCell id="xjIFtlh1PoH-UqJgCrfh-13" value="(1,N)" style="text;html=1;align=center;verticalAlign=middle;resizable=0;points=[];autosize=1;strokeColor=none;fillColor=none;" vertex="1" parent="1">
          <mxGeometry x="738" y="440" width="40" height="20" as="geometry" />
        </mxCell>
        <mxCell id="xjIFtlh1PoH-UqJgCrfh-14" value="(1,1)" style="text;html=1;align=center;verticalAlign=middle;resizable=0;points=[];autosize=1;strokeColor=none;fillColor=none;" vertex="1" parent="1">
          <mxGeometry x="620" y="560" width="40" height="20" as="geometry" />
        </mxCell>
        <mxCell id="xjIFtlh1PoH-UqJgCrfh-15" value="" style="ellipse;whiteSpace=wrap;html=1;aspect=fixed;strokeWidth=1;fillColor=none;" vertex="1" parent="1">
          <mxGeometry x="441" y="565" width="10" height="10" as="geometry" />
        </mxCell>
        <mxCell id="xjIFtlh1PoH-UqJgCrfh-16" value="" style="endArrow=none;html=1;rounded=0;exitX=1;exitY=0.5;exitDx=0;exitDy=0;entryX=0;entryY=0.25;entryDx=0;entryDy=0;" edge="1" parent="1" source="xjIFtlh1PoH-UqJgCrfh-15" target="xjIFtlh1PoH-UqJgCrfh-1">
          <mxGeometry width="50" height="50" relative="1" as="geometry">
            <mxPoint x="471" y="590" as="sourcePoint" />
            <mxPoint x="521" y="540" as="targetPoint" />
          </mxGeometry>
        </mxCell>
        <mxCell id="xjIFtlh1PoH-UqJgCrfh-17" value="Data fine" style="text;html=1;align=center;verticalAlign=middle;resizable=0;points=[];autosize=1;strokeColor=none;fillColor=none;" vertex="1" parent="1">
          <mxGeometry x="381" y="559" width="60" height="20" as="geometry" />
        </mxCell>
        <mxCell id="xjIFtlh1PoH-UqJgCrfh-18" value="" style="endArrow=none;html=1;rounded=0;exitX=0.5;exitY=0;exitDx=0;exitDy=0;entryX=0.5;entryY=1;entryDx=0;entryDy=0;" edge="1" parent="1" source="xjIFtlh1PoH-UqJgCrfh-2" target="_7TDcqivY-833FL7VtdI-3">
          <mxGeometry width="50" height="50" relative="1" as="geometry">
            <mxPoint x="700" y="510" as="sourcePoint" />
            <mxPoint x="750" y="460" as="targetPoint" />
          </mxGeometry>
        </mxCell>
      </root>
    </mxGraphModel>
  </diagram>
</mxfile>
